<svg width="20px" height="10px" viewBox="0 0 20 10" version="1.1" xmlns="http://www.w3.org/2000/svg" xmlns:xlink="http://www.w3.org/1999/xlink">
    <g id="Designs" stroke="none" stroke-width="1" fill="none" fill-rule="evenodd">
        <g id="Desktop---Step-2---Monthly" transform="translate(-822.000000, -304.000000)" fill="#FFFFFF" fill-rule="nonzero">
            <g id="Group-15" transform="translate(250.000000, 105.000000)">
                <g id="Group-18" transform="translate(390.000000, 56.000000)">
                    <g id="Group-16" transform="translate(0.000000, 108.000000)">
                        <g id="Group-4-Copy-3" transform="translate(156.000000, 0.000000)">
                            <g id="Group-12" transform="translate(16.000000, 20.000000)">
                                <g id="Shape-4" transform="translate(10.000000, 15.000000)">
                                    <path d="M15.0566521,-1.42108547e-14 C17.7897325,-1.42108547e-14 20,2.02937508 20,4.88473225 C20,7.74191976 17.7897322,9.8214283 15.0566072,9.8214283 L4.94370556,9.8214283 C2.21165204,9.8214283 0,7.74191976 0,4.88473225 C0,2.02937508 2.21165204,-1.42108547e-14 4.94370556,-1.42108547e-14 Z M14.7461606,5.94035721 C14.2668749,5.94035721 13.8778124,6.32044652 13.8778124,6.79540187 C13.8778124,7.26660722 14.2668749,7.64736617 14.7461606,7.64736617 C15.2275892,7.64736617 15.6166071,7.26656258 15.6166071,6.79540187 C15.6166071,6.32049116 15.2275445,5.94035721 14.7461606,5.94035721 Z M5.47758937,2.41066957 L4.48897326,2.41066957 C4.36848219,2.41066957 4.28571427,2.51656242 4.28571427,2.64183028 L4.28571427,4.19638383 L2.70236607,4.19638383 C2.585625,4.19638383 2.5,4.29205352 2.5,4.40937495 L2.5,5.36593747 C2.5,5.48642854 2.59066965,5.625 2.71700893,5.625 L4.28566968,5.625 L4.28566968,7.20834804 C4.28566968,7.3250891 4.38133925,7.41071439 4.49866068,7.41071439 L5.45522332,7.41071439 C5.57571439,7.41071439 5.71428561,7.32004461 5.71428561,7.19370532 L5.71428561,5.625 L7.26616049,5.625 C7.39191942,5.625 7.50004482,5.50870536 7.50004482,5.38825893 L7.50004482,4.39968741 C7.50004482,4.27919634 7.39415157,4.19642854 7.26888371,4.19642854 L5.71433043,4.19642854 L5.71433043,2.64450885 C5.71433043,2.51874992 5.5980358,2.41066957 5.47758937,2.41066957 Z M12.846696,4.06986618 C12.3674103,4.06986618 11.9783478,4.45392865 11.9783478,4.92558044 C11.9783478,5.39727688 12.3674103,5.7806251 12.846696,5.7806251 C13.3280799,5.7806251 13.7171425,5.39727688 13.7171425,4.92558044 C13.7171425,4.45392865 13.3280799,4.06986618 12.846696,4.06986618 Z M16.6456249,4.06986618 C16.1666964,4.06986618 15.7776785,4.45392865 15.7776785,4.92558044 C15.7776785,5.39727688 16.1666517,5.7806251 16.6456249,5.7806251 C17.1249999,5.7806251 17.5140178,5.39727688 17.5140178,4.92558044 C17.5140178,4.45392865 17.1249553,4.06986618 16.6456249,4.06986618 Z M14.7461606,2.20089293 C14.2668749,2.20089293 13.8778124,2.58491075 13.8778124,3.05665183 C13.8778124,3.52839291 14.2668749,3.91138399 14.7461606,3.91138399 C15.2275892,3.91138399 15.6166071,3.52839291 15.6166071,3.05665183 C15.6166071,2.58491075 15.2275445,2.20089293 14.7461606,2.20089293 Z" id="Shape"></path>
                                </g>
                            </g>
                        </g>
                    </g>
                </g>
            </g>
        </g>
    </g>
</svg>