<svg width="12px" height="20px" viewBox="0 0 12 20" version="1.1" xmlns="http://www.w3.org/2000/svg" xmlns:xlink="http://www.w3.org/1999/xlink">
    <g id="Designs" stroke="none" stroke-width="1" fill="none" fill-rule="evenodd">
        <g id="Desktop---Step-2---Monthly" transform="translate(-670.000000, -299.000000)" fill="#FFFFFF" fill-rule="nonzero">
            <g id="Group-15" transform="translate(250.000000, 105.000000)">
                <g id="Group-18" transform="translate(390.000000, 56.000000)">
                    <g id="Group-16" transform="translate(0.000000, 108.000000)">
                        <g id="Group-11" transform="translate(16.000000, 20.000000)">
                            <g id="Shape-2" transform="translate(14.000000, 10.000000)">
                                <path d="M4.99789429,8.00505447 L4.99789429,14.0025272 L6.99705172,14.0025272 L6.99705172,8.00505447 L10.9953671,8.00505447 C11.5474192,8.00505447 11.9949455,8.45258117 11.9949455,9.00463331 L11.9949455,19.0004215 C11.9949455,19.5524737 11.5474192,20 10.9953671,20 L0.999578834,20 C0.447526693,20 0,19.5524737 0,19.0004215 L0,9.00463331 C0,8.45258117 0.447526693,8.00505447 0.999578834,8.00505447 L4.99789429,8.00505447 Z M4.99789405,15.0021057 L2.99873638,15.0021057 L2.99873638,17.0012634 L4.99789405,17.0012634 L4.99789405,15.0021057 Z M5.997473,0 C7.45796657,0 8.70605086,1.05218387 8.9530232,2.49164414 C9.19999553,3.93110442 8.37401819,5.33914092 6.99705172,5.82597208 L6.99705172,8.00505447 L4.99789417,8.00505447 L4.99789417,5.82597208 C3.62092769,5.33914092 2.79495028,3.93110442 3.04192261,2.49164414 C3.28889495,1.05218387 4.53697944,0 5.997473,0 Z" id="Shape"></path>
                            </g>
                        </g>
                    </g>
                </g>
            </g>
        </g>
    </g>
</svg>