<svg width="20px" height="14px" viewBox="0 0 20 14" version="1.1" xmlns="http://www.w3.org/2000/svg" xmlns:xlink="http://www.w3.org/1999/xlink">
    <g id="Designs" stroke="none" stroke-width="1" fill="none" fill-rule="evenodd">
        <g id="Desktop---Step-2---Monthly" transform="translate(-978.000000, -302.000000)" fill="#FFFFFF" fill-rule="nonzero">
            <g id="Group-15" transform="translate(250.000000, 105.000000)">
                <g id="Group-18" transform="translate(390.000000, 56.000000)">
                    <g id="Group-16" transform="translate(0.000000, 108.000000)">
                        <g id="Group-4-Copy-4" transform="translate(312.000000, 0.000000)">
                            <g id="Group-13" transform="translate(16.000000, 20.000000)">
                                <g id="Shape-3" transform="translate(10.000000, 13.000000)">
                                    <path d="M16.6664181,0 C18.5072987,0 19.9996281,1.49232864 19.9996281,3.33320928 L19.9996281,10.5262747 C20.0203833,11.9435158 19.1713558,13.228958 17.8597069,13.7661543 C16.6224065,14.2684106 15.2033016,13.9495101 14.29984,12.9661837 L11.4799452,9.99962807 L8.52005482,9.99962807 L5.70016003,12.9661837 C4.79568917,13.9477637 3.37775791,14.2664003 2.14029241,13.7661543 C0.828643441,13.228958 -0.0203830982,11.9435158 0.000372149952,10.5262747 L0.000372149952,3.33320928 C0.000372149952,1.49232864 1.49270082,0 3.33358145,0 Z M5.33350682,2.66656733 C4.96533069,2.66656733 4.66686511,2.96503302 4.66686511,3.33320916 L4.66686511,4.66649294 L3.33358133,4.66649294 C2.9654052,4.66649294 2.6669395,4.96495852 2.6669395,5.33313465 C2.6669395,5.70131078 2.9654052,5.9997766 3.33358133,5.9997766 L4.66686511,5.9997766 L4.66686511,7.33306026 C4.66686511,7.7012364 4.96533069,7.99970198 5.33350682,7.99970198 C5.70168296,7.99970198 6.00014877,7.7012364 6.00014877,7.33306026 L6.00014877,5.9997766 L7.33343244,5.9997766 C7.70160857,5.9997766 8.00007415,5.70131078 8.00007415,5.33313465 C8.00007415,4.96495852 7.70160857,4.66649294 7.33343244,4.66649294 L6.00014877,4.66649294 L6.00014877,3.33320916 C6.00014877,2.96503302 5.70168296,2.66656733 5.33350682,2.66656733 Z M14.6664929,2.66656733 C13.1937884,2.66656733 11.9999256,3.86043012 11.9999256,5.33313465 C11.9999256,6.80583918 13.1937884,7.99970198 14.6664929,7.99970198 C15.3737106,7.99970198 16.0519627,7.71876115 16.5520411,7.21868277 C17.0521194,6.71860439 17.3330603,6.04035228 17.3330603,5.33313465 C17.3330603,3.86043012 16.1391975,2.66656733 14.6664929,2.66656733 Z M14.6664927,3.99985123 C15.402845,3.99985123 15.9997764,4.59678262 15.9997764,5.33313489 C15.9997764,6.06948715 15.402845,6.66641855 14.6664927,6.66641855 C13.9301404,6.66641855 13.333209,6.06948715 13.333209,5.33313489 C13.333209,4.59678262 13.9301404,3.99985123 14.6664927,3.99985123 Z" id="Shape"></path>
                                </g>
                            </g>
                        </g>
                    </g>
                </g>
            </g>
        </g>
    </g>
</svg>